<svg xmlns="http://www.w3.org/2000/svg" xmlns:xlink="http://www.w3.org/1999/xlink" id="body_1" preserveAspectRatio="xMinYMin meet" viewBox="0 0 820 1160"><defs><clipPath id="1"><path id="" clip-rule="evenodd" d="M0 870L0 0L0 0L615 0L615 0L615 870L615 870L0 870z" /></clipPath><clipPath id="2"><path id="" clip-rule="evenodd" d="M0 0L614.4 0L614.4 0L614.4 869.1512L614.4 869.1512L0 869.1512L0 869.1512L0 0z" /></clipPath><clipPath id="3"><path id="" clip-rule="evenodd" d="M0 0L614.4 0L614.4 0L614.4 869.1512L614.4 869.1512L0 869.1512L0 869.1512L0 0z" /></clipPath><clipPath id="4"><path id="" clip-rule="evenodd" d="M480.2809 30.71997L576.1873 30.71997L576.1873 30.71997L576.1873 149.1044L576.1873 149.1044L480.2809 149.1044L480.2809 149.1044L480.2809 30.71997z" /></clipPath><clipPath id="5"><path id="" clip-rule="evenodd" d="M0 0L614.4 0L614.4 0L614.4 869.1512L614.4 869.1512L0 869.1512L0 869.1512L0 0z" /></clipPath><clipPath id="6"><path id="" clip-rule="evenodd" d="M0 0L614.4 0L614.4 0L614.4 869.1512L614.4 869.1512L0 869.1512L0 869.1512L0 0z" /></clipPath><clipPath id="7"><path id="" clip-rule="evenodd" d="M483.278 33.71704L573.1902 33.71704L573.1902 33.71704L573.1902 146.1073L573.1902 146.1073L483.278 146.1073L483.278 146.1073L483.278 33.71704z" /></clipPath><clipPath id="8"><path id="" clip-rule="evenodd" d="M0 0L614.4 0L614.4 0L614.4 869.1512L614.4 869.1512L0 869.1512L0 869.1512L0 0z" /></clipPath><clipPath id="9"><path id="" clip-rule="evenodd" d="M483.278 33.71704L573.1902 33.71704L573.1902 33.71704L573.1902 146.1073L573.1902 146.1073L483.278 146.1073L483.278 146.1073L483.278 33.71704z" /></clipPath><clipPath id="10"><path id="" clip-rule="evenodd" d="M483.278 33.71704L573.1902 33.71704L573.1902 33.71704L573.1902 146.1073L573.1902 146.1073L483.278 146.1073L483.278 146.1073L483.278 33.71704z" /></clipPath><clipPath id="11"><path id="" clip-rule="evenodd" d="M0 0L614.4 0L614.4 0L614.4 869.1512L614.4 869.1512L0 869.1512L0 869.1512L0 0z" /></clipPath><clipPath id="12"><path id="" clip-rule="evenodd" d="M0 0L614.4 0L614.4 0L614.4 869.1512L614.4 869.1512L0 869.1512L0 869.1512L0 0z" /></clipPath><clipPath id="13"><path id="" clip-rule="evenodd" d="M483.278 33.71704L573.1902 33.71704L573.1902 33.71704L573.1902 146.1073L573.1902 146.1073L483.278 146.1073L483.278 146.1073L483.278 33.71704z" /></clipPath><clipPath id="14"><path id="" clip-rule="evenodd" d="M0 0L614.4 0L614.4 0L614.4 869.1512L614.4 869.1512L0 869.1512L0 869.1512L0 0z" /></clipPath><clipPath id="15"><path id="" clip-rule="evenodd" d="M483.278 33.71704L573.1902 33.71704L573.1902 33.71704L573.1902 146.1073L573.1902 146.1073L483.278 146.1073L483.278 146.1073L483.278 33.71704z" /></clipPath><clipPath id="16"><path id="" clip-rule="evenodd" d="M483.278 33.71704L573.1902 33.71704L573.1902 33.71704L573.1902 146.1073L573.1902 146.1073L483.278 146.1073L483.278 146.1073L483.278 33.71704z" /></clipPath><clipPath id="17"><path id="" clip-rule="evenodd" d="M0 0L614.4 0L614.4 0L614.4 869.1512L614.4 869.1512L0 869.1512L0 869.1512L0 0z" /></clipPath><clipPath id="18"><path id="" clip-rule="evenodd" d="M0 0L614.4 0L614.4 0L614.4 869.1512L614.4 869.1512L0 869.1512L0 869.1512L0 0z" /></clipPath><clipPath id="19"><path id="" clip-rule="evenodd" d="M483.278 33.71704L573.1902 33.71704L573.1902 33.71704L573.1902 146.1073L573.1902 146.1073L483.278 146.1073L483.278 146.1073L483.278 33.71704z" /></clipPath><clipPath id="20"><path id="" clip-rule="evenodd" d="M0 0L614.4 0L614.4 0L614.4 869.1512L614.4 869.1512L0 869.1512L0 869.1512L0 0z" /></clipPath><clipPath id="21"><path id="" clip-rule="evenodd" d="M483.278 33.71704L573.1902 33.71704L573.1902 33.71704L573.1902 146.1073L573.1902 146.1073L483.278 146.1073L483.278 146.1073L483.278 33.71704z" /></clipPath><clipPath id="22"><path id="" clip-rule="evenodd" d="M483.278 33.71704L573.1902 33.71704L573.1902 33.71704L573.1902 146.1073L573.1902 146.1073L483.278 146.1073L483.278 146.1073L483.278 33.71704z" /></clipPath><clipPath id="23"><path id="" clip-rule="evenodd" d="M0 0L614.4 0L614.4 0L614.4 869.1512L614.4 869.1512L0 869.1512L0 869.1512L0 0z" /></clipPath><clipPath id="24"><path id="" clip-rule="evenodd" d="M0 0L614.4 0L614.4 0L614.4 869.1512L614.4 869.1512L0 869.1512L0 869.1512L0 0z" /></clipPath><clipPath id="25"><path id="" clip-rule="evenodd" d="M483.278 33.71704L573.1902 33.71704L573.1902 33.71704L573.1902 146.1073L573.1902 146.1073L483.278 146.1073L483.278 146.1073L483.278 33.71704z" /></clipPath><clipPath id="26"><path id="" clip-rule="evenodd" d="M0 0L614.4 0L614.4 0L614.4 869.1512L614.4 869.1512L0 869.1512L0 869.1512L0 0z" /></clipPath><clipPath id="27"><path id="" clip-rule="evenodd" d="M483.278 33.71704L573.1902 33.71704L573.1902 33.71704L573.1902 146.1073L573.1902 146.1073L483.278 146.1073L483.278 146.1073L483.278 33.71704z" /></clipPath><clipPath id="28"><path id="" clip-rule="evenodd" d="M483.278 33.71704L573.1902 33.71704L573.1902 33.71704L573.1902 146.1073L573.1902 146.1073L483.278 146.1073L483.278 146.1073L483.278 33.71704z" /></clipPath><clipPath id="29"><path id="" clip-rule="evenodd" d="M0 0L614.4 0L614.4 0L614.4 869.1512L614.4 869.1512L0 869.1512L0 869.1512L0 0z" /></clipPath><clipPath id="30"><path id="" clip-rule="evenodd" d="M0 0L614.4 0L614.4 0L614.4 869.1512L614.4 869.1512L0 869.1512L0 869.1512L0 0z" /></clipPath><clipPath id="31"><path id="" clip-rule="evenodd" d="M483.278 33.71704L573.1902 33.71704L573.1902 33.71704L573.1902 146.1073L573.1902 146.1073L483.278 146.1073L483.278 146.1073L483.278 33.71704z" /></clipPath><clipPath id="32"><path id="" clip-rule="evenodd" d="M0 0L614.4 0L614.4 0L614.4 869.1512L614.4 869.1512L0 869.1512L0 869.1512L0 0z" /></clipPath><clipPath id="33"><path id="" clip-rule="evenodd" d="M0 0L614.4 0L614.4 0L614.4 869.1512L614.4 869.1512L0 869.1512L0 869.1512L0 0z" /></clipPath><clipPath id="34"><path id="" clip-rule="evenodd" d="M26.97366 210.5444L116.8858 210.5444L116.8858 210.5444L116.8858 232.2731L116.8858 232.2731L26.97366 232.2731L26.97366 232.2731L26.97366 210.5444z" /></clipPath><clipPath id="35"><path id="" clip-rule="evenodd" d="M0 0L614.4 0L614.4 0L614.4 869.1512L614.4 869.1512L0 869.1512L0 869.1512L0 0z" /></clipPath><clipPath id="36"><path id="" clip-rule="evenodd" d="M0 0L614.4 0L614.4 0L614.4 869.1512L614.4 869.1512L0 869.1512L0 869.1512L0 0z" /></clipPath><clipPath id="37"><path id="" clip-rule="evenodd" d="M26.97366 210.5444L116.8858 210.5444L116.8858 210.5444L116.8858 232.2731L116.8858 232.2731L26.97366 232.2731L26.97366 232.2731L26.97366 210.5444z" /></clipPath><clipPath id="38"><path id="" clip-rule="evenodd" d="M0 0L614.4 0L614.4 0L614.4 869.1512L614.4 869.1512L0 869.1512L0 869.1512L0 0z" /></clipPath><clipPath id="39"><path id="" clip-rule="evenodd" d="M0 0L614.4 0L614.4 0L614.4 869.1512L614.4 869.1512L0 869.1512L0 869.1512L0 0z" /></clipPath><clipPath id="40"><path id="" clip-rule="evenodd" d="M26.22439 275.7307L116.1366 275.7307L116.1366 275.7307L116.1366 295.9609L116.1366 295.9609L26.22439 295.9609L26.22439 295.9609L26.22439 275.7307z" /></clipPath><clipPath id="41"><path id="" clip-rule="evenodd" d="M0 0L614.4 0L614.4 0L614.4 869.1512L614.4 869.1512L0 869.1512L0 869.1512L0 0z" /></clipPath><clipPath id="42"><path id="" clip-rule="evenodd" d="M0 0L614.4 0L614.4 0L614.4 869.1512L614.4 869.1512L0 869.1512L0 869.1512L0 0z" /></clipPath><clipPath id="43"><path id="" clip-rule="evenodd" d="M26.22439 275.7307L116.1366 275.7307L116.1366 275.7307L116.1366 295.9609L116.1366 295.9609L26.22439 295.9609L26.22439 295.9609L26.22439 275.7307z" /></clipPath><clipPath id="44"><path id="" clip-rule="evenodd" d="M0 0L614.4 0L614.4 0L614.4 869.1512L614.4 869.1512L0 869.1512L0 869.1512L0 0z" /></clipPath><clipPath id="45"><path id="" clip-rule="evenodd" d="M0 0L614.4 0L614.4 0L614.4 869.1512L614.4 869.1512L0 869.1512L0 869.1512L0 0z" /></clipPath><clipPath id="46"><path id="" clip-rule="evenodd" d="M26.22439 665.3502L116.1366 665.3502L116.1366 665.3502L116.1366 687.079L116.1366 687.079L26.22439 687.079L26.22439 687.079L26.22439 665.3502z" /></clipPath><clipPath id="47"><path id="" clip-rule="evenodd" d="M0 0L614.4 0L614.4 0L614.4 869.1512L614.4 869.1512L0 869.1512L0 869.1512L0 0z" /></clipPath><clipPath id="48"><path id="" clip-rule="evenodd" d="M0 0L614.4 0L614.4 0L614.4 869.1512L614.4 869.1512L0 869.1512L0 869.1512L0 0z" /></clipPath><clipPath id="49"><path id="" clip-rule="evenodd" d="M26.22439 665.3502L116.1366 665.3502L116.1366 665.3502L116.1366 687.079L116.1366 687.079L26.22439 687.079L26.22439 687.079L26.22439 665.3502z" /></clipPath><clipPath id="50"><path id="" clip-rule="evenodd" d="M0 0L614.4 0L614.4 0L614.4 869.1512L614.4 869.1512L0 869.1512L0 869.1512L0 0z" /></clipPath></defs><g transform="matrix(1.333333 0 0 1.333333 0 0)"><g clip-path="url(#1)"><g clip-path="url(#2)"><path id="1" transform="matrix(1 0 0 -1 0 870)" d="M0 870L614.4 870L614.4 0.8487549L0 0.8487549z" stroke="none" fill="#FFFFFF" fill-rule="nonzero" /><path id="2" transform="matrix(1 0 0 -1 0 870)" d="M0 870L614.4 870L614.4 -868.3025L0 -868.3025z" stroke="none" fill="#FFFFFF" fill-rule="nonzero" /><path id="3" transform="matrix(1 0 0 -1 0 870)" d="M0 660.2049L614.4 660.2049L614.4 -553.6097L0 -553.6097z" stroke="none" fill="#FFFFFF" fill-rule="nonzero" /><g transform="matrix(0.7492682 0 0 0.7492682 0 17.23328)"><g transform="matrix(1 0 0 1 0 0)"><image x="0" y="0" xlink:href="img_01.png" width="617" height="186" /></g></g><path id="5" transform="matrix(1 0 0 -1 0 870)" d="M23.97658 685.68L591.1726 685.68L591.1726 682.6829L23.97658 682.6829z" stroke="none" fill="#0B70BD" fill-rule="nonzero" /></g><g clip-path="url(#3)"><g clip-path="url(#4)"><path id="6" transform="matrix(1 0 0 -1 0 870)" d="M480.2809 839.28L576.1873 839.28L576.1873 720.8956L480.2809 720.8956z" stroke="none" fill="#E5E5E5" fill-rule="nonzero" /><path id="7" transform="matrix(1 0 0 -1 0 870)" d="M480.2809 839.28L576.1873 839.28L576.1873 836.283L480.2809 836.283z" stroke="none" fill="#E5E5E5" fill-rule="nonzero" /><path id="8" transform="matrix(1 0 0 -1 0 870)" d="M480.2809 723.8927L576.1873 723.8927L576.1873 720.8956L480.2809 720.8956z" stroke="none" fill="#E5E5E5" fill-rule="nonzero" /><path id="9" transform="matrix(1 0 0 -1 0 870)" d="M480.2809 839.28L483.278 839.28L483.278 720.8956L480.2809 720.8956z" stroke="none" fill="#E5E5E5" fill-rule="nonzero" /><path id="10" transform="matrix(1 0 0 -1 0 870)" d="M573.1902 839.28L576.1873 839.28L576.1873 720.8956L573.1902 720.8956z" stroke="none" fill="#E5E5E5" fill-rule="nonzero" /></g></g><g clip-path="url(#5)"></g><g clip-path="url(#6)"><g clip-path="url(#7)"></g></g><g clip-path="url(#8)"><g clip-path="url(#9)"><g clip-path="url(#10)"></g></g></g><g clip-path="url(#11)"></g><g clip-path="url(#12)"><g clip-path="url(#13)"></g></g><g clip-path="url(#14)"><g clip-path="url(#15)"><g clip-path="url(#16)"></g></g></g><g clip-path="url(#17)"></g><g clip-path="url(#18)"><g clip-path="url(#19)"></g></g><g clip-path="url(#20)"><g clip-path="url(#21)"><g clip-path="url(#22)"><g transform="matrix(0.1908964 0 0 0.1908154 483.278 33.7171)"><g transform="matrix(1 0 0 1 0 0)"><image x="0" y="0" xlink:href="img_02.png" width="471" height="589" /></g></g></g></g></g><g clip-path="url(#23)"></g><g clip-path="url(#24)"><g clip-path="url(#25)"></g></g><g clip-path="url(#26)"><g clip-path="url(#27)"><g clip-path="url(#28)"></g></g></g><g clip-path="url(#29)"></g><g clip-path="url(#30)"><g clip-path="url(#31)"></g></g><g clip-path="url(#32)"><path id="38" transform="matrix(1 0 0 -1 0 870)" d="M65.93561 774.8429L67.43414 774.8429L67.43414 765.8517L65.93561 765.8517z" stroke="none" fill="#FFFFFF" fill-rule="nonzero" /><path id="41" transform="matrix(1 0 0 -1 0 870)" d="M101.9005 774.8429L103.399 774.8429L103.399 765.8517L101.9005 765.8517z" stroke="none" fill="#FFFFFF" fill-rule="nonzero" /><path id="46" transform="matrix(1 0 0 -1 0 870)" d="M134.8683 774.8429L136.3668 774.8429L136.3668 765.8517L134.8683 765.8517z" stroke="none" fill="#FFFFFF" fill-rule="nonzero" /><path id="50" transform="matrix(1 0 0 -1 0 870)" d="M167.8361 774.8429L169.3346 774.8429L169.3346 765.8517L167.8361 765.8517z" stroke="none" fill="#FFFFFF" fill-rule="nonzero" /><path id="54" transform="matrix(1 0 0 -1 0 870)" d="M250.2556 774.8429L251.7541 774.8429L251.7541 765.8517L250.2556 765.8517z" stroke="none" fill="#FFFFFF" fill-rule="nonzero" /><path id="67" transform="matrix(1 0 0 -1 0 870)" d="M368.64 774.8429L370.1385 774.8429L370.1385 765.8517L368.64 765.8517z" stroke="none" fill="#FFFFFF" fill-rule="nonzero" /><path id="92" transform="matrix(1 0 0 -1 0 870)" d="M49.4517 742.999L103.399 742.999" stroke="#FFFFFF" stroke-width="0.7492682" stroke-linecap="square" fill="none" /><path id="93" transform="matrix(1 0 0 -1 0 870)" d="M134.8683 658.7064L135.6176 658.7064L135.6176 592.7708L134.8683 592.7708z" stroke="none" fill="#0B70BD" fill-rule="nonzero" /><path id="97" transform="matrix(1 0 0 -1 0 870)" d="M135.6176 649.7151L585.9277 649.7151L585.9277 648.9658L135.6176 648.9658z" stroke="none" fill="#0B70BD" fill-rule="nonzero" /><path id="98" transform="matrix(1 0 0 -1 0 870)" d="M135.6175 659.4556C 141.8215 659.4556 146.8566 654.4205 146.8566 648.2166C 146.8566 642.0127 141.8215 636.9775 135.6175 636.9775C 129.4136 636.9775 124.3785 642.0127 124.3785 648.2166C 124.3785 654.4205 129.4136 659.4556 135.6175 659.4556z" stroke="none" fill="#0B70BD" fill-rule="evenodd" /></g><g clip-path="url(#33)"><g clip-path="url(#34)"></g></g><g clip-path="url(#35)"></g><g clip-path="url(#36)"><g clip-path="url(#37)"></g></g><g clip-path="url(#38)"><path id="124" transform="matrix(1 0 0 -1 0 870)" d="M134.8683 592.7708L135.6176 592.7708L135.6176 203.1512L134.8683 203.1512z" stroke="none" fill="#0B70BD" fill-rule="nonzero" /><path id="125" transform="matrix(1 0 0 -1 0 870)" d="M134.8683 584.5288L585.1785 584.5288L585.1785 583.7795L134.8683 583.7795z" stroke="none" fill="#0B70BD" fill-rule="nonzero" /><path id="126" transform="matrix(1 0 0 -1 0 870)" d="M134.8683 594.2693C 141.0722 594.2693 146.1073 589.2342 146.1073 583.0303C 146.1073 576.8263 141.0722 571.7913 134.8683 571.7913C 128.6643 571.7913 123.6293 576.8263 123.6293 583.0303C 123.6293 589.2342 128.6643 594.2693 134.8683 594.2693z" stroke="none" fill="#0B70BD" fill-rule="evenodd" /></g><g clip-path="url(#39)"><g clip-path="url(#40)"></g></g><g clip-path="url(#41)"></g><g clip-path="url(#42)"><g clip-path="url(#43)"></g></g><g clip-path="url(#44)"><path id="774" transform="matrix(1 0 0 -1 0 870)" d="M161.8419 138.7142L269.7366 138.7142L269.7366 131.2214L161.8419 131.2214z" stroke="none" fill="#F4F4F4" fill-rule="nonzero" /><path id="775" transform="matrix(1 0 0 -1 0 870)" d="M161.8419 138.7142L248.0078 138.7142L248.0078 131.2214L161.8419 131.2214z" stroke="none" fill="#329CEC" fill-rule="nonzero" /><path id="789" transform="matrix(1 0 0 -1 0 870)" d="M338.6693 138.7142L446.5639 138.7142L446.5639 131.2214L338.6693 131.2214z" stroke="none" fill="#F4F4F4" fill-rule="nonzero" /><path id="790" transform="matrix(1 0 0 -1 0 870)" d="M338.6693 138.7142L424.8351 138.7142L424.8351 131.2214L338.6693 131.2214z" stroke="none" fill="#329CEC" fill-rule="nonzero" /><path id="797" transform="matrix(1 0 0 -1 0 870)" d="M161.8419 96.00586L269.7366 96.00586L269.7366 88.51318L161.8419 88.51318z" stroke="none" fill="#F4F4F4" fill-rule="nonzero" /><path id="798" transform="matrix(1 0 0 -1 0 870)" d="M161.8419 96.00586L248.0078 96.00586L248.0078 88.51318L161.8419 88.51318z" stroke="none" fill="#329CEC" fill-rule="nonzero" /><path id="805" transform="matrix(1 0 0 -1 0 870)" d="M338.6693 96.00586L446.5639 96.00586L446.5639 88.51318L338.6693 88.51318z" stroke="none" fill="#F4F4F4" fill-rule="nonzero" /><path id="806" transform="matrix(1 0 0 -1 0 870)" d="M338.6693 96.00586L424.8351 96.00586L424.8351 88.51318L338.6693 88.51318z" stroke="none" fill="#329CEC" fill-rule="nonzero" /><path id="813" transform="matrix(1 0 0 -1 0 870)" d="M161.8419 53.29755L269.7366 53.29755L269.7366 45.80487L161.8419 45.80487z" stroke="none" fill="#F4F4F4" fill-rule="nonzero" /><path id="814" transform="matrix(1 0 0 -1 0 870)" d="M161.8419 53.29755L188.8156 53.29755L188.8156 45.80487L161.8419 45.80487z" stroke="none" fill="#329CEC" fill-rule="nonzero" /><path id="825" transform="matrix(1 0 0 -1 0 870)" d="M338.6693 53.29755L446.5639 53.29755L446.5639 45.80487L338.6693 45.80487z" stroke="none" fill="#F4F4F4" fill-rule="nonzero" /><path id="826" transform="matrix(1 0 0 -1 0 870)" d="M338.6693 53.29755L365.6429 53.29755L365.6429 45.80487L338.6693 45.80487z" stroke="none" fill="#329CEC" fill-rule="nonzero" /><path id="829" transform="matrix(1 0 0 -1 0 870)" d="M134.8683 203.1512L135.6176 203.1512L135.6176 -59.09271L134.8683 -59.09271z" stroke="none" fill="#0B70BD" fill-rule="nonzero" /><path id="830" transform="matrix(1 0 0 -1 0 870)" d="M134.8683 194.9092L585.1785 194.9092L585.1785 194.16L134.8683 194.16z" stroke="none" fill="#0B70BD" fill-rule="nonzero" /><path id="831" transform="matrix(1 0 0 -1 0 870)" d="M134.8683 204.6498C 141.0722 204.6498 146.1073 199.6147 146.1073 193.4108C 146.1073 187.2068 141.0722 182.1718 134.8683 182.1718C 128.6643 182.1718 123.6293 187.2068 123.6293 193.4108C 123.6293 199.6147 128.6643 204.6498 134.8683 204.6498z" stroke="none" fill="#0B70BD" fill-rule="evenodd" /></g><g clip-path="url(#45)"><g clip-path="url(#46)"></g></g><g clip-path="url(#47)"></g><g clip-path="url(#48)"><g clip-path="url(#49)"></g></g><g clip-path="url(#50)"></g></g></g></svg>