<svg xmlns="http://www.w3.org/2000/svg" xmlns:xlink="http://www.w3.org/1999/xlink" id="body_2" preserveAspectRatio="xMinYMin meet" viewBox="0 0 820 1160"><defs><clipPath id="1"><path id="" clip-rule="evenodd" d="M0 870L0 0L0 0L615 0L615 0L615 870L615 870L0 870z" /></clipPath><clipPath id="2"><path id="" clip-rule="evenodd" d="M0 0L614.4 0L614.4 0L614.4 869.1512L614.4 869.1512L0 869.1512L0 869.1512L0 0z" /></clipPath><clipPath id="3"><path id="" clip-rule="evenodd" d="M0 0L614.4 0L614.4 0L614.4 869.1512L614.4 869.1512L0 869.1512L0 869.1512L0 0z" /></clipPath><clipPath id="4"><path id="" clip-rule="evenodd" d="M26.22439 58.44293L116.1366 58.44293L116.1366 58.44293L116.1366 80.17169L116.1366 80.17169L26.22439 80.17169L26.22439 80.17169L26.22439 58.44293z" /></clipPath><clipPath id="5"><path id="" clip-rule="evenodd" d="M0 0L614.4 0L614.4 0L614.4 869.1512L614.4 869.1512L0 869.1512L0 869.1512L0 0z" /></clipPath><clipPath id="6"><path id="" clip-rule="evenodd" d="M0 0L614.4 0L614.4 0L614.4 869.1512L614.4 869.1512L0 869.1512L0 869.1512L0 0z" /></clipPath><clipPath id="7"><path id="" clip-rule="evenodd" d="M26.22439 58.44293L116.1366 58.44293L116.1366 58.44293L116.1366 80.17169L116.1366 80.17169L26.22439 80.17169L26.22439 80.17169L26.22439 58.44293z" /></clipPath><clipPath id="8"><path id="" clip-rule="evenodd" d="M0 0L614.4 0L614.4 0L614.4 869.1512L614.4 869.1512L0 869.1512L0 869.1512L0 0z" /></clipPath><clipPath id="9"><path id="" clip-rule="evenodd" d="M0 0L614.4 0L614.4 0L614.4 869.1512L614.4 869.1512L0 869.1512L0 869.1512L0 0z" /></clipPath><clipPath id="10"><path id="" clip-rule="evenodd" d="M354.4039 93.65851L585.1785 93.65851L585.1785 93.65851L585.1785 109.3932L585.1785 109.3932L354.4039 109.3932L354.4039 109.3932L354.4039 93.65851z" /></clipPath><clipPath id="11"><path id="" clip-rule="evenodd" d="M0 0L614.4 0L614.4 0L614.4 869.1512L614.4 869.1512L0 869.1512L0 869.1512L0 0z" /></clipPath><clipPath id="12"><path id="" clip-rule="evenodd" d="M0 0L614.4 0L614.4 0L614.4 869.1512L614.4 869.1512L0 869.1512L0 869.1512L0 0z" /></clipPath><clipPath id="13"><path id="" clip-rule="evenodd" d="M354.4039 93.65851L585.1785 93.65851L585.1785 93.65851L585.1785 109.3932L585.1785 109.3932L354.4039 109.3932L354.4039 109.3932L354.4039 93.65851z" /></clipPath><clipPath id="14"><path id="" clip-rule="evenodd" d="M0 0L614.4 0L614.4 0L614.4 869.1512L614.4 869.1512L0 869.1512L0 869.1512L0 0z" /></clipPath><clipPath id="15"><path id="" clip-rule="evenodd" d="M0 0L614.4 0L614.4 0L614.4 869.1512L614.4 869.1512L0 869.1512L0 869.1512L0 0z" /></clipPath><clipPath id="16"><path id="" clip-rule="evenodd" d="M354.4039 93.65851L585.1785 93.65851L585.1785 93.65851L585.1785 109.3932L585.1785 109.3932L354.4039 109.3932L354.4039 109.3932L354.4039 93.65851z" /></clipPath><clipPath id="17"><path id="" clip-rule="evenodd" d="M0 0L614.4 0L614.4 0L614.4 869.1512L614.4 869.1512L0 869.1512L0 869.1512L0 0z" /></clipPath><clipPath id="18"><path id="" clip-rule="evenodd" d="M0 0L614.4 0L614.4 0L614.4 869.1512L614.4 869.1512L0 869.1512L0 869.1512L0 0z" /></clipPath><clipPath id="19"><path id="" clip-rule="evenodd" d="M354.4039 93.65851L585.1785 93.65851L585.1785 93.65851L585.1785 109.3932L585.1785 109.3932L354.4039 109.3932L354.4039 109.3932L354.4039 93.65851z" /></clipPath><clipPath id="20"><path id="" clip-rule="evenodd" d="M0 0L614.4 0L614.4 0L614.4 869.1512L614.4 869.1512L0 869.1512L0 869.1512L0 0z" /></clipPath><clipPath id="21"><path id="" clip-rule="evenodd" d="M0 0L614.4 0L614.4 0L614.4 869.1512L614.4 869.1512L0 869.1512L0 869.1512L0 0z" /></clipPath><clipPath id="22"><path id="" clip-rule="evenodd" d="M159.5941 93.65851L337.92 93.65851L337.92 93.65851L337.92 109.3932L337.92 109.3932L159.5941 109.3932L159.5941 109.3932L159.5941 93.65851z" /></clipPath><clipPath id="23"><path id="" clip-rule="evenodd" d="M0 0L614.4 0L614.4 0L614.4 869.1512L614.4 869.1512L0 869.1512L0 869.1512L0 0z" /></clipPath><clipPath id="24"><path id="" clip-rule="evenodd" d="M0 0L614.4 0L614.4 0L614.4 869.1512L614.4 869.1512L0 869.1512L0 869.1512L0 0z" /></clipPath><clipPath id="25"><path id="" clip-rule="evenodd" d="M159.5941 93.65851L337.92 93.65851L337.92 93.65851L337.92 109.3932L337.92 109.3932L159.5941 109.3932L159.5941 109.3932L159.5941 93.65851z" /></clipPath><clipPath id="26"><path id="" clip-rule="evenodd" d="M0 0L614.4 0L614.4 0L614.4 869.1512L614.4 869.1512L0 869.1512L0 869.1512L0 0z" /></clipPath><clipPath id="27"><path id="" clip-rule="evenodd" d="M0 0L614.4 0L614.4 0L614.4 869.1512L614.4 869.1512L0 869.1512L0 869.1512L0 0z" /></clipPath><clipPath id="28"><path id="" clip-rule="evenodd" d="M159.5941 93.65851L337.92 93.65851L337.92 93.65851L337.92 109.3932L337.92 109.3932L159.5941 109.3932L159.5941 109.3932L159.5941 93.65851z" /></clipPath><clipPath id="29"><path id="" clip-rule="evenodd" d="M0 0L614.4 0L614.4 0L614.4 869.1512L614.4 869.1512L0 869.1512L0 869.1512L0 0z" /></clipPath><clipPath id="30"><path id="" clip-rule="evenodd" d="M0 0L614.4 0L614.4 0L614.4 869.1512L614.4 869.1512L0 869.1512L0 869.1512L0 0z" /></clipPath><clipPath id="31"><path id="" clip-rule="evenodd" d="M159.5941 93.65851L337.92 93.65851L337.92 93.65851L337.92 109.3932L337.92 109.3932L159.5941 109.3932L159.5941 109.3932L159.5941 93.65851z" /></clipPath><clipPath id="32"><path id="" clip-rule="evenodd" d="M0 0L614.4 0L614.4 0L614.4 869.1512L614.4 869.1512L0 869.1512L0 869.1512L0 0z" /></clipPath><clipPath id="33"><path id="" clip-rule="evenodd" d="M0 0L614.4 0L614.4 0L614.4 869.1512L614.4 869.1512L0 869.1512L0 869.1512L0 0z" /></clipPath><clipPath id="34"><path id="" clip-rule="evenodd" d="M354.4039 146.8566L585.1785 146.8566L585.1785 146.8566L585.1785 162.5912L585.1785 162.5912L354.4039 162.5912L354.4039 162.5912L354.4039 146.8566z" /></clipPath><clipPath id="35"><path id="" clip-rule="evenodd" d="M0 0L614.4 0L614.4 0L614.4 869.1512L614.4 869.1512L0 869.1512L0 869.1512L0 0z" /></clipPath><clipPath id="36"><path id="" clip-rule="evenodd" d="M0 0L614.4 0L614.4 0L614.4 869.1512L614.4 869.1512L0 869.1512L0 869.1512L0 0z" /></clipPath><clipPath id="37"><path id="" clip-rule="evenodd" d="M354.4039 146.8566L585.1785 146.8566L585.1785 146.8566L585.1785 162.5912L585.1785 162.5912L354.4039 162.5912L354.4039 162.5912L354.4039 146.8566z" /></clipPath><clipPath id="38"><path id="" clip-rule="evenodd" d="M0 0L614.4 0L614.4 0L614.4 869.1512L614.4 869.1512L0 869.1512L0 869.1512L0 0z" /></clipPath><clipPath id="39"><path id="" clip-rule="evenodd" d="M0 0L614.4 0L614.4 0L614.4 869.1512L614.4 869.1512L0 869.1512L0 869.1512L0 0z" /></clipPath><clipPath id="40"><path id="" clip-rule="evenodd" d="M354.4039 146.8566L585.1785 146.8566L585.1785 146.8566L585.1785 162.5912L585.1785 162.5912L354.4039 162.5912L354.4039 162.5912L354.4039 146.8566z" /></clipPath><clipPath id="41"><path id="" clip-rule="evenodd" d="M0 0L614.4 0L614.4 0L614.4 869.1512L614.4 869.1512L0 869.1512L0 869.1512L0 0z" /></clipPath><clipPath id="42"><path id="" clip-rule="evenodd" d="M0 0L614.4 0L614.4 0L614.4 869.1512L614.4 869.1512L0 869.1512L0 869.1512L0 0z" /></clipPath><clipPath id="43"><path id="" clip-rule="evenodd" d="M354.4039 146.8566L585.1785 146.8566L585.1785 146.8566L585.1785 162.5912L585.1785 162.5912L354.4039 162.5912L354.4039 162.5912L354.4039 146.8566z" /></clipPath><clipPath id="44"><path id="" clip-rule="evenodd" d="M0 0L614.4 0L614.4 0L614.4 869.1512L614.4 869.1512L0 869.1512L0 869.1512L0 0z" /></clipPath><clipPath id="45"><path id="" clip-rule="evenodd" d="M0 0L614.4 0L614.4 0L614.4 869.1512L614.4 869.1512L0 869.1512L0 869.1512L0 0z" /></clipPath><clipPath id="46"><path id="" clip-rule="evenodd" d="M159.5941 146.8566L337.92 146.8566L337.92 146.8566L337.92 162.5912L337.92 162.5912L159.5941 162.5912L159.5941 162.5912L159.5941 146.8566z" /></clipPath><clipPath id="47"><path id="" clip-rule="evenodd" d="M0 0L614.4 0L614.4 0L614.4 869.1512L614.4 869.1512L0 869.1512L0 869.1512L0 0z" /></clipPath><clipPath id="48"><path id="" clip-rule="evenodd" d="M0 0L614.4 0L614.4 0L614.4 869.1512L614.4 869.1512L0 869.1512L0 869.1512L0 0z" /></clipPath><clipPath id="49"><path id="" clip-rule="evenodd" d="M159.5941 146.8566L337.92 146.8566L337.92 146.8566L337.92 162.5912L337.92 162.5912L159.5941 162.5912L159.5941 162.5912L159.5941 146.8566z" /></clipPath><clipPath id="50"><path id="" clip-rule="evenodd" d="M0 0L614.4 0L614.4 0L614.4 869.1512L614.4 869.1512L0 869.1512L0 869.1512L0 0z" /></clipPath><clipPath id="51"><path id="" clip-rule="evenodd" d="M0 0L614.4 0L614.4 0L614.4 869.1512L614.4 869.1512L0 869.1512L0 869.1512L0 0z" /></clipPath><clipPath id="52"><path id="" clip-rule="evenodd" d="M159.5941 146.8566L337.92 146.8566L337.92 146.8566L337.92 162.5912L337.92 162.5912L159.5941 162.5912L159.5941 162.5912L159.5941 146.8566z" /></clipPath><clipPath id="53"><path id="" clip-rule="evenodd" d="M0 0L614.4 0L614.4 0L614.4 869.1512L614.4 869.1512L0 869.1512L0 869.1512L0 0z" /></clipPath><clipPath id="54"><path id="" clip-rule="evenodd" d="M0 0L614.4 0L614.4 0L614.4 869.1512L614.4 869.1512L0 869.1512L0 869.1512L0 0z" /></clipPath><clipPath id="55"><path id="" clip-rule="evenodd" d="M159.5941 146.8566L337.92 146.8566L337.92 146.8566L337.92 162.5912L337.92 162.5912L159.5941 162.5912L159.5941 162.5912L159.5941 146.8566z" /></clipPath><clipPath id="56"><path id="" clip-rule="evenodd" d="M0 0L614.4 0L614.4 0L614.4 869.1512L614.4 869.1512L0 869.1512L0 869.1512L0 0z" /></clipPath><clipPath id="57"><path id="" clip-rule="evenodd" d="M0 0L614.4 0L614.4 0L614.4 869.1512L614.4 869.1512L0 869.1512L0 869.1512L0 0z" /></clipPath><clipPath id="58"><path id="" clip-rule="evenodd" d="M354.4039 200.0546L585.1785 200.0546L585.1785 200.0546L585.1785 215.7892L585.1785 215.7892L354.4039 215.7892L354.4039 215.7892L354.4039 200.0546z" /></clipPath><clipPath id="59"><path id="" clip-rule="evenodd" d="M0 0L614.4 0L614.4 0L614.4 869.1512L614.4 869.1512L0 869.1512L0 869.1512L0 0z" /></clipPath><clipPath id="60"><path id="" clip-rule="evenodd" d="M0 0L614.4 0L614.4 0L614.4 869.1512L614.4 869.1512L0 869.1512L0 869.1512L0 0z" /></clipPath><clipPath id="61"><path id="" clip-rule="evenodd" d="M354.4039 200.0546L585.1785 200.0546L585.1785 200.0546L585.1785 215.7892L585.1785 215.7892L354.4039 215.7892L354.4039 215.7892L354.4039 200.0546z" /></clipPath><clipPath id="62"><path id="" clip-rule="evenodd" d="M0 0L614.4 0L614.4 0L614.4 869.1512L614.4 869.1512L0 869.1512L0 869.1512L0 0z" /></clipPath><clipPath id="63"><path id="" clip-rule="evenodd" d="M0 0L614.4 0L614.4 0L614.4 869.1512L614.4 869.1512L0 869.1512L0 869.1512L0 0z" /></clipPath><clipPath id="64"><path id="" clip-rule="evenodd" d="M354.4039 200.0546L585.1785 200.0546L585.1785 200.0546L585.1785 215.7892L585.1785 215.7892L354.4039 215.7892L354.4039 215.7892L354.4039 200.0546z" /></clipPath><clipPath id="65"><path id="" clip-rule="evenodd" d="M0 0L614.4 0L614.4 0L614.4 869.1512L614.4 869.1512L0 869.1512L0 869.1512L0 0z" /></clipPath><clipPath id="66"><path id="" clip-rule="evenodd" d="M0 0L614.4 0L614.4 0L614.4 869.1512L614.4 869.1512L0 869.1512L0 869.1512L0 0z" /></clipPath><clipPath id="67"><path id="" clip-rule="evenodd" d="M354.4039 200.0546L585.1785 200.0546L585.1785 200.0546L585.1785 215.7892L585.1785 215.7892L354.4039 215.7892L354.4039 215.7892L354.4039 200.0546z" /></clipPath><clipPath id="68"><path id="" clip-rule="evenodd" d="M0 0L614.4 0L614.4 0L614.4 869.1512L614.4 869.1512L0 869.1512L0 869.1512L0 0z" /></clipPath><clipPath id="69"><path id="" clip-rule="evenodd" d="M0 0L614.4 0L614.4 0L614.4 869.1512L614.4 869.1512L0 869.1512L0 869.1512L0 0z" /></clipPath><clipPath id="70"><path id="" clip-rule="evenodd" d="M159.5941 200.0546L337.92 200.0546L337.92 200.0546L337.92 215.7892L337.92 215.7892L159.5941 215.7892L159.5941 215.7892L159.5941 200.0546z" /></clipPath><clipPath id="71"><path id="" clip-rule="evenodd" d="M0 0L614.4 0L614.4 0L614.4 869.1512L614.4 869.1512L0 869.1512L0 869.1512L0 0z" /></clipPath><clipPath id="72"><path id="" clip-rule="evenodd" d="M0 0L614.4 0L614.4 0L614.4 869.1512L614.4 869.1512L0 869.1512L0 869.1512L0 0z" /></clipPath><clipPath id="73"><path id="" clip-rule="evenodd" d="M159.5941 200.0546L337.92 200.0546L337.92 200.0546L337.92 215.7892L337.92 215.7892L159.5941 215.7892L159.5941 215.7892L159.5941 200.0546z" /></clipPath><clipPath id="74"><path id="" clip-rule="evenodd" d="M0 0L614.4 0L614.4 0L614.4 869.1512L614.4 869.1512L0 869.1512L0 869.1512L0 0z" /></clipPath><clipPath id="75"><path id="" clip-rule="evenodd" d="M0 0L614.4 0L614.4 0L614.4 869.1512L614.4 869.1512L0 869.1512L0 869.1512L0 0z" /></clipPath><clipPath id="76"><path id="" clip-rule="evenodd" d="M159.5941 200.0546L337.92 200.0546L337.92 200.0546L337.92 215.7892L337.92 215.7892L159.5941 215.7892L159.5941 215.7892L159.5941 200.0546z" /></clipPath><clipPath id="77"><path id="" clip-rule="evenodd" d="M0 0L614.4 0L614.4 0L614.4 869.1512L614.4 869.1512L0 869.1512L0 869.1512L0 0z" /></clipPath><clipPath id="78"><path id="" clip-rule="evenodd" d="M0 0L614.4 0L614.4 0L614.4 869.1512L614.4 869.1512L0 869.1512L0 869.1512L0 0z" /></clipPath><clipPath id="79"><path id="" clip-rule="evenodd" d="M159.5941 200.0546L337.92 200.0546L337.92 200.0546L337.92 215.7892L337.92 215.7892L159.5941 215.7892L159.5941 215.7892L159.5941 200.0546z" /></clipPath><clipPath id="80"><path id="" clip-rule="evenodd" d="M0 0L614.4 0L614.4 0L614.4 869.1512L614.4 869.1512L0 869.1512L0 869.1512L0 0z" /></clipPath><clipPath id="81"><path id="" clip-rule="evenodd" d="M0 0L614.4 0L614.4 0L614.4 869.1512L614.4 869.1512L0 869.1512L0 869.1512L0 0z" /></clipPath><clipPath id="82"><path id="" clip-rule="evenodd" d="M354.4039 253.2527L585.1785 253.2527L585.1785 253.2527L585.1785 268.9873L585.1785 268.9873L354.4039 268.9873L354.4039 268.9873L354.4039 253.2527z" /></clipPath><clipPath id="83"><path id="" clip-rule="evenodd" d="M0 0L614.4 0L614.4 0L614.4 869.1512L614.4 869.1512L0 869.1512L0 869.1512L0 0z" /></clipPath><clipPath id="84"><path id="" clip-rule="evenodd" d="M0 0L614.4 0L614.4 0L614.4 869.1512L614.4 869.1512L0 869.1512L0 869.1512L0 0z" /></clipPath><clipPath id="85"><path id="" clip-rule="evenodd" d="M354.4039 253.2527L585.1785 253.2527L585.1785 253.2527L585.1785 268.9873L585.1785 268.9873L354.4039 268.9873L354.4039 268.9873L354.4039 253.2527z" /></clipPath><clipPath id="86"><path id="" clip-rule="evenodd" d="M0 0L614.4 0L614.4 0L614.4 869.1512L614.4 869.1512L0 869.1512L0 869.1512L0 0z" /></clipPath><clipPath id="87"><path id="" clip-rule="evenodd" d="M0 0L614.4 0L614.4 0L614.4 869.1512L614.4 869.1512L0 869.1512L0 869.1512L0 0z" /></clipPath><clipPath id="88"><path id="" clip-rule="evenodd" d="M354.4039 253.2527L585.1785 253.2527L585.1785 253.2527L585.1785 268.9873L585.1785 268.9873L354.4039 268.9873L354.4039 268.9873L354.4039 253.2527z" /></clipPath><clipPath id="89"><path id="" clip-rule="evenodd" d="M0 0L614.4 0L614.4 0L614.4 869.1512L614.4 869.1512L0 869.1512L0 869.1512L0 0z" /></clipPath><clipPath id="90"><path id="" clip-rule="evenodd" d="M0 0L614.4 0L614.4 0L614.4 869.1512L614.4 869.1512L0 869.1512L0 869.1512L0 0z" /></clipPath><clipPath id="91"><path id="" clip-rule="evenodd" d="M354.4039 253.2527L585.1785 253.2527L585.1785 253.2527L585.1785 268.9873L585.1785 268.9873L354.4039 268.9873L354.4039 268.9873L354.4039 253.2527z" /></clipPath><clipPath id="92"><path id="" clip-rule="evenodd" d="M0 0L614.4 0L614.4 0L614.4 869.1512L614.4 869.1512L0 869.1512L0 869.1512L0 0z" /></clipPath><clipPath id="93"><path id="" clip-rule="evenodd" d="M0 0L614.4 0L614.4 0L614.4 869.1512L614.4 869.1512L0 869.1512L0 869.1512L0 0z" /></clipPath><clipPath id="94"><path id="" clip-rule="evenodd" d="M159.5941 253.2527L337.92 253.2527L337.92 253.2527L337.92 268.9873L337.92 268.9873L159.5941 268.9873L159.5941 268.9873L159.5941 253.2527z" /></clipPath><clipPath id="95"><path id="" clip-rule="evenodd" d="M0 0L614.4 0L614.4 0L614.4 869.1512L614.4 869.1512L0 869.1512L0 869.1512L0 0z" /></clipPath><clipPath id="96"><path id="" clip-rule="evenodd" d="M0 0L614.4 0L614.4 0L614.4 869.1512L614.4 869.1512L0 869.1512L0 869.1512L0 0z" /></clipPath><clipPath id="97"><path id="" clip-rule="evenodd" d="M159.5941 253.2527L337.92 253.2527L337.92 253.2527L337.92 268.9873L337.92 268.9873L159.5941 268.9873L159.5941 268.9873L159.5941 253.2527z" /></clipPath><clipPath id="98"><path id="" clip-rule="evenodd" d="M0 0L614.4 0L614.4 0L614.4 869.1512L614.4 869.1512L0 869.1512L0 869.1512L0 0z" /></clipPath><clipPath id="99"><path id="" clip-rule="evenodd" d="M0 0L614.4 0L614.4 0L614.4 869.1512L614.4 869.1512L0 869.1512L0 869.1512L0 0z" /></clipPath><clipPath id="100"><path id="" clip-rule="evenodd" d="M159.5941 253.2527L337.92 253.2527L337.92 253.2527L337.92 268.9873L337.92 268.9873L159.5941 268.9873L159.5941 268.9873L159.5941 253.2527z" /></clipPath><clipPath id="101"><path id="" clip-rule="evenodd" d="M0 0L614.4 0L614.4 0L614.4 869.1512L614.4 869.1512L0 869.1512L0 869.1512L0 0z" /></clipPath><clipPath id="102"><path id="" clip-rule="evenodd" d="M0 0L614.4 0L614.4 0L614.4 869.1512L614.4 869.1512L0 869.1512L0 869.1512L0 0z" /></clipPath><clipPath id="103"><path id="" clip-rule="evenodd" d="M159.5941 253.2527L337.92 253.2527L337.92 253.2527L337.92 268.9873L337.92 268.9873L159.5941 268.9873L159.5941 268.9873L159.5941 253.2527z" /></clipPath><clipPath id="104"><path id="" clip-rule="evenodd" d="M0 0L614.4 0L614.4 0L614.4 869.1512L614.4 869.1512L0 869.1512L0 869.1512L0 0z" /></clipPath><clipPath id="105"><path id="" clip-rule="evenodd" d="M0 0L614.4 0L614.4 0L614.4 869.1512L614.4 869.1512L0 869.1512L0 869.1512L0 0z" /></clipPath><clipPath id="106"><path id="" clip-rule="evenodd" d="M26.22439 317.6897L116.1366 317.6897L116.1366 317.6897L116.1366 339.4185L116.1366 339.4185L26.22439 339.4185L26.22439 339.4185L26.22439 317.6897z" /></clipPath><clipPath id="107"><path id="" clip-rule="evenodd" d="M0 0L614.4 0L614.4 0L614.4 869.1512L614.4 869.1512L0 869.1512L0 869.1512L0 0z" /></clipPath><clipPath id="108"><path id="" clip-rule="evenodd" d="M0 0L614.4 0L614.4 0L614.4 869.1512L614.4 869.1512L0 869.1512L0 869.1512L0 0z" /></clipPath><clipPath id="109"><path id="" clip-rule="evenodd" d="M26.22439 317.6897L116.1366 317.6897L116.1366 317.6897L116.1366 339.4185L116.1366 339.4185L26.22439 339.4185L26.22439 339.4185L26.22439 317.6897z" /></clipPath><clipPath id="110"><path id="" clip-rule="evenodd" d="M0 0L614.4 0L614.4 0L614.4 869.1512L614.4 869.1512L0 869.1512L0 869.1512L0 0z" /></clipPath><clipPath id="111"><path id="" clip-rule="evenodd" d="M0 0L614.4 0L614.4 0L614.4 869.1512L614.4 869.1512L0 869.1512L0 869.1512L0 0z" /></clipPath><clipPath id="112"><path id="" clip-rule="evenodd" d="M354.4039 352.9053L585.1785 352.9053L585.1785 352.9053L585.1785 368.64L585.1785 368.64L354.4039 368.64L354.4039 368.64L354.4039 352.9053z" /></clipPath><clipPath id="113"><path id="" clip-rule="evenodd" d="M0 0L614.4 0L614.4 0L614.4 869.1512L614.4 869.1512L0 869.1512L0 869.1512L0 0z" /></clipPath><clipPath id="114"><path id="" clip-rule="evenodd" d="M0 0L614.4 0L614.4 0L614.4 869.1512L614.4 869.1512L0 869.1512L0 869.1512L0 0z" /></clipPath><clipPath id="115"><path id="" clip-rule="evenodd" d="M354.4039 352.9053L585.1785 352.9053L585.1785 352.9053L585.1785 368.64L585.1785 368.64L354.4039 368.64L354.4039 368.64L354.4039 352.9053z" /></clipPath><clipPath id="116"><path id="" clip-rule="evenodd" d="M0 0L614.4 0L614.4 0L614.4 869.1512L614.4 869.1512L0 869.1512L0 869.1512L0 0z" /></clipPath><clipPath id="117"><path id="" clip-rule="evenodd" d="M0 0L614.4 0L614.4 0L614.4 869.1512L614.4 869.1512L0 869.1512L0 869.1512L0 0z" /></clipPath><clipPath id="118"><path id="" clip-rule="evenodd" d="M354.4039 352.9053L585.1785 352.9053L585.1785 352.9053L585.1785 368.64L585.1785 368.64L354.4039 368.64L354.4039 368.64L354.4039 352.9053z" /></clipPath><clipPath id="119"><path id="" clip-rule="evenodd" d="M0 0L614.4 0L614.4 0L614.4 869.1512L614.4 869.1512L0 869.1512L0 869.1512L0 0z" /></clipPath><clipPath id="120"><path id="" clip-rule="evenodd" d="M0 0L614.4 0L614.4 0L614.4 869.1512L614.4 869.1512L0 869.1512L0 869.1512L0 0z" /></clipPath><clipPath id="121"><path id="" clip-rule="evenodd" d="M354.4039 352.9053L585.1785 352.9053L585.1785 352.9053L585.1785 368.64L585.1785 368.64L354.4039 368.64L354.4039 368.64L354.4039 352.9053z" /></clipPath><clipPath id="122"><path id="" clip-rule="evenodd" d="M0 0L614.4 0L614.4 0L614.4 869.1512L614.4 869.1512L0 869.1512L0 869.1512L0 0z" /></clipPath><clipPath id="123"><path id="" clip-rule="evenodd" d="M0 0L614.4 0L614.4 0L614.4 869.1512L614.4 869.1512L0 869.1512L0 869.1512L0 0z" /></clipPath><clipPath id="124"><path id="" clip-rule="evenodd" d="M159.5941 352.9053L337.92 352.9053L337.92 352.9053L337.92 368.64L337.92 368.64L159.5941 368.64L159.5941 368.64L159.5941 352.9053z" /></clipPath><clipPath id="125"><path id="" clip-rule="evenodd" d="M0 0L614.4 0L614.4 0L614.4 869.1512L614.4 869.1512L0 869.1512L0 869.1512L0 0z" /></clipPath><clipPath id="126"><path id="" clip-rule="evenodd" d="M0 0L614.4 0L614.4 0L614.4 869.1512L614.4 869.1512L0 869.1512L0 869.1512L0 0z" /></clipPath><clipPath id="127"><path id="" clip-rule="evenodd" d="M159.5941 352.9053L337.92 352.9053L337.92 352.9053L337.92 368.64L337.92 368.64L159.5941 368.64L159.5941 368.64L159.5941 352.9053z" /></clipPath><clipPath id="128"><path id="" clip-rule="evenodd" d="M0 0L614.4 0L614.4 0L614.4 869.1512L614.4 869.1512L0 869.1512L0 869.1512L0 0z" /></clipPath><clipPath id="129"><path id="" clip-rule="evenodd" d="M0 0L614.4 0L614.4 0L614.4 869.1512L614.4 869.1512L0 869.1512L0 869.1512L0 0z" /></clipPath><clipPath id="130"><path id="" clip-rule="evenodd" d="M159.5941 352.9053L337.92 352.9053L337.92 352.9053L337.92 368.64L337.92 368.64L159.5941 368.64L159.5941 368.64L159.5941 352.9053z" /></clipPath><clipPath id="131"><path id="" clip-rule="evenodd" d="M0 0L614.4 0L614.4 0L614.4 869.1512L614.4 869.1512L0 869.1512L0 869.1512L0 0z" /></clipPath><clipPath id="132"><path id="" clip-rule="evenodd" d="M0 0L614.4 0L614.4 0L614.4 869.1512L614.4 869.1512L0 869.1512L0 869.1512L0 0z" /></clipPath><clipPath id="133"><path id="" clip-rule="evenodd" d="M159.5941 352.9053L337.92 352.9053L337.92 352.9053L337.92 368.64L337.92 368.64L159.5941 368.64L159.5941 368.64L159.5941 352.9053z" /></clipPath><clipPath id="134"><path id="" clip-rule="evenodd" d="M0 0L614.4 0L614.4 0L614.4 869.1512L614.4 869.1512L0 869.1512L0 869.1512L0 0z" /></clipPath><clipPath id="135"><path id="" clip-rule="evenodd" d="M0 0L614.4 0L614.4 0L614.4 869.1512L614.4 869.1512L0 869.1512L0 869.1512L0 0z" /></clipPath><clipPath id="136"><path id="" clip-rule="evenodd" d="M26.22439 417.3424L116.1366 417.3424L116.1366 417.3424L116.1366 439.0712L116.1366 439.0712L26.22439 439.0712L26.22439 439.0712L26.22439 417.3424z" /></clipPath><clipPath id="137"><path id="" clip-rule="evenodd" d="M0 0L614.4 0L614.4 0L614.4 869.1512L614.4 869.1512L0 869.1512L0 869.1512L0 0z" /></clipPath><clipPath id="138"><path id="" clip-rule="evenodd" d="M0 0L614.4 0L614.4 0L614.4 869.1512L614.4 869.1512L0 869.1512L0 869.1512L0 0z" /></clipPath><clipPath id="139"><path id="" clip-rule="evenodd" d="M26.22439 417.3424L116.1366 417.3424L116.1366 417.3424L116.1366 439.0712L116.1366 439.0712L26.22439 439.0712L26.22439 439.0712L26.22439 417.3424z" /></clipPath><clipPath id="140"><path id="" clip-rule="evenodd" d="M0 0L614.4 0L614.4 0L614.4 869.1512L614.4 869.1512L0 869.1512L0 869.1512L0 0z" /></clipPath></defs><g transform="matrix(1.333333 0 0 1.333333 0 0)"><g clip-path="url(#1)"><g clip-path="url(#2)"><path id="1" transform="matrix(1 0 0 -1 0 870)" d="M0 1739.151L614.4 1739.151L614.4 0.8486328L0 0.8486328z" stroke="none" fill="#FFFFFF" fill-rule="nonzero" /><path id="2" transform="matrix(1 0 0 -1 0 870)" d="M0 1529.356L614.4 1529.356L614.4 315.5414L0 315.5414z" stroke="none" fill="#FFFFFF" fill-rule="nonzero" /><path id="9" transform="matrix(1 0 0 -1 0 870)" d="M161.8419 846.0233L269.7366 846.0233L269.7366 838.5306L161.8419 838.5306z" stroke="none" fill="#F4F4F4" fill-rule="nonzero" /><path id="10" transform="matrix(1 0 0 -1 0 870)" d="M161.8419 846.0233L215.7892 846.0233L215.7892 838.5306L161.8419 838.5306z" stroke="none" fill="#329CEC" fill-rule="nonzero" /><path id="20" transform="matrix(1 0 0 -1 0 870)" d="M338.6693 846.0233L446.5639 846.0233L446.5639 838.5306L338.6693 838.5306z" stroke="none" fill="#F4F4F4" fill-rule="nonzero" /><path id="21" transform="matrix(1 0 0 -1 0 870)" d="M338.6693 846.0233L424.8351 846.0233L424.8351 838.5306L338.6693 838.5306z" stroke="none" fill="#329CEC" fill-rule="nonzero" /><path id="24" transform="matrix(1 0 0 -1 0 870)" d="M134.8683 1072.302L135.6176 1072.302L135.6176 810.0584L134.8683 810.0584z" stroke="none" fill="#0B70BD" fill-rule="nonzero" /><path id="25" transform="matrix(1 0 0 -1 0 870)" d="M134.8683 810.0584L135.6176 810.0584L135.6176 550.8116L134.8683 550.8116z" stroke="none" fill="#0B70BD" fill-rule="nonzero" /><path id="26" transform="matrix(1 0 0 -1 0 870)" d="M134.8683 801.8165L585.1785 801.8165L585.1785 801.0672L134.8683 801.0672z" stroke="none" fill="#0B70BD" fill-rule="nonzero" /><path id="27" transform="matrix(1 0 0 -1 0 870)" d="M134.8683 811.5571C 141.0722 811.5571 146.1073 806.522 146.1073 800.3181C 146.1073 794.1141 141.0722 789.079 134.8683 789.079C 128.6643 789.079 123.6293 794.1141 123.6293 800.3181C 123.6293 806.522 128.6643 811.5571 134.8683 811.5571z" stroke="none" fill="#0B70BD" fill-rule="evenodd" /></g><g clip-path="url(#3)"><g clip-path="url(#4)"></g></g><g clip-path="url(#5)"></g><g clip-path="url(#6)"><g clip-path="url(#7)"></g></g><g clip-path="url(#8)"></g><g clip-path="url(#9)"><g clip-path="url(#10)"></g></g><g clip-path="url(#11)"></g><g clip-path="url(#12)"><g clip-path="url(#13)"></g></g><g clip-path="url(#14)"></g><g clip-path="url(#15)"><g clip-path="url(#16)"></g></g><g clip-path="url(#17)"></g><g clip-path="url(#18)"><g clip-path="url(#19)"></g></g><g clip-path="url(#20)"><g transform="matrix(0.7492682 0 0 0.7492683 128.8741 95.15717)"><g transform="matrix(1 0 0 1 0 0)"><image x="0" y="0" xlink:href="img_04.png" width="16" height="18" /></g></g></g><g clip-path="url(#21)"><g clip-path="url(#22)"></g></g><g clip-path="url(#23)"></g><g clip-path="url(#24)"><g clip-path="url(#25)"></g></g><g clip-path="url(#26)"></g><g clip-path="url(#27)"><g clip-path="url(#28)"></g></g><g clip-path="url(#29)"></g><g clip-path="url(#30)"><g clip-path="url(#31)"></g></g><g clip-path="url(#32)"></g><g clip-path="url(#33)"><g clip-path="url(#34)"></g></g><g clip-path="url(#35)"></g><g clip-path="url(#36)"><g clip-path="url(#37)"></g></g><g clip-path="url(#38)"></g><g clip-path="url(#39)"><g clip-path="url(#40)"></g></g><g clip-path="url(#41)"></g><g clip-path="url(#42)"><g clip-path="url(#43)"></g></g><g clip-path="url(#44)"><g transform="matrix(0.7492682 0 0 0.7492683 128.8741 148.3552)"><g transform="matrix(1 0 0 1 0 0)"><image x="0" y="0" xlink:href="img_04.png" width="16" height="18" /></g></g></g><g clip-path="url(#45)"><g clip-path="url(#46)"></g></g><g clip-path="url(#47)"></g><g clip-path="url(#48)"><g clip-path="url(#49)"></g></g><g clip-path="url(#50)"></g><g clip-path="url(#51)"><g clip-path="url(#52)"></g></g><g clip-path="url(#53)"></g><g clip-path="url(#54)"><g clip-path="url(#55)"></g></g><g clip-path="url(#56)"></g><g clip-path="url(#57)"><g clip-path="url(#58)"></g></g><g clip-path="url(#59)"></g><g clip-path="url(#60)"><g clip-path="url(#61)"></g></g><g clip-path="url(#62)"></g><g clip-path="url(#63)"><g clip-path="url(#64)"></g></g><g clip-path="url(#65)"></g><g clip-path="url(#66)"><g clip-path="url(#67)"></g></g><g clip-path="url(#68)"><g transform="matrix(0.7492682 0 0 0.7492683 128.8741 201.5533)"><g transform="matrix(1 0 0 1 0 0)"><image x="0" y="0" xlink:href="img_04.png" width="16" height="18" /></g></g></g><g clip-path="url(#69)"><g clip-path="url(#70)"></g></g><g clip-path="url(#71)"></g><g clip-path="url(#72)"><g clip-path="url(#73)"></g></g><g clip-path="url(#74)"></g><g clip-path="url(#75)"><g clip-path="url(#76)"></g></g><g clip-path="url(#77)"></g><g clip-path="url(#78)"><g clip-path="url(#79)"></g></g><g clip-path="url(#80)"></g><g clip-path="url(#81)"><g clip-path="url(#82)"></g></g><g clip-path="url(#83)"></g><g clip-path="url(#84)"><g clip-path="url(#85)"></g></g><g clip-path="url(#86)"></g><g clip-path="url(#87)"><g clip-path="url(#88)"></g></g><g clip-path="url(#89)"></g><g clip-path="url(#90)"><g clip-path="url(#91)"></g></g><g clip-path="url(#92)"><g transform="matrix(0.7492682 0 0 0.7492683 128.8741 254.7513)"><g transform="matrix(1 0 0 1 0 0)"><image x="0" y="0" xlink:href="img_04.png" width="16" height="18" /></g></g></g><g clip-path="url(#93)"><g clip-path="url(#94)"></g></g><g clip-path="url(#95)"></g><g clip-path="url(#96)"><g clip-path="url(#97)"></g></g><g clip-path="url(#98)"></g><g clip-path="url(#99)"><g clip-path="url(#100)"></g></g><g clip-path="url(#101)"></g><g clip-path="url(#102)"><g clip-path="url(#103)"></g></g><g clip-path="url(#104)"><path id="69" transform="matrix(1 0 0 -1 0 870)" d="M134.8683 550.8116L135.6176 550.8116L135.6176 451.1589L134.8683 451.1589z" stroke="none" fill="#0B70BD" fill-rule="nonzero" /><path id="70" transform="matrix(1 0 0 -1 0 870)" d="M134.8683 542.5697L585.1785 542.5697L585.1785 541.8204L134.8683 541.8204z" stroke="none" fill="#0B70BD" fill-rule="nonzero" /><path id="71" transform="matrix(1 0 0 -1 0 870)" d="M134.8683 552.3103C 141.0722 552.3103 146.1073 547.2752 146.1073 541.0713C 146.1073 534.8673 141.0722 529.8322 134.8683 529.8322C 128.6643 529.8322 123.6293 534.8673 123.6293 541.0713C 123.6293 547.2752 128.6643 552.3103 134.8683 552.3103z" stroke="none" fill="#0B70BD" fill-rule="evenodd" /></g><g clip-path="url(#105)"><g clip-path="url(#106)"></g></g><g clip-path="url(#107)"></g><g clip-path="url(#108)"><g clip-path="url(#109)"></g></g><g clip-path="url(#110)"></g><g clip-path="url(#111)"><g clip-path="url(#112)"></g></g><g clip-path="url(#113)"></g><g clip-path="url(#114)"><g clip-path="url(#115)"></g></g><g clip-path="url(#116)"></g><g clip-path="url(#117)"><g clip-path="url(#118)"></g></g><g clip-path="url(#119)"></g><g clip-path="url(#120)"><g clip-path="url(#121)"></g></g><g clip-path="url(#122)"><g transform="matrix(0.7492682 0 0 0.7492683 128.8741 354.4039)"><g transform="matrix(1 0 0 1 0 0)"><image x="0" y="0" xlink:href="img_04.png" width="16" height="18" /></g></g></g><g clip-path="url(#123)"><g clip-path="url(#124)"></g></g><g clip-path="url(#125)"></g><g clip-path="url(#126)"><g clip-path="url(#127)"></g></g><g clip-path="url(#128)"></g><g clip-path="url(#129)"><g clip-path="url(#130)"></g></g><g clip-path="url(#131)"></g><g clip-path="url(#132)"><g clip-path="url(#133)"></g></g><g clip-path="url(#134)"><path id="102" transform="matrix(1 0 0 -1 0 870)" d="M164.839 417.442L215.04 417.442C 216.2808 417.442 217.2878 416.435 217.2878 415.1942L217.2878 415.1942L217.2878 368.7396C 217.2878 367.4987 216.2808 366.4917 215.04 366.4917L215.04 366.4917L164.839 366.4917C 163.5982 366.4917 162.5912 367.4987 162.5912 368.7396L162.5912 368.7396L162.5912 415.1942C 162.5912 416.435 163.5982 417.442 164.839 417.442zM164.839 418.1913L215.04 418.1913C 216.6944 418.1913 218.0371 416.8486 218.0371 415.1942L218.0371 415.1942L218.0371 368.7396C 218.0371 367.0852 216.6944 365.7425 215.04 365.7425L215.04 365.7425L164.839 365.7425C 163.1846 365.7425 161.8419 367.0852 161.8419 368.7396L161.8419 368.7396L161.8419 415.1942C 161.8419 416.8486 163.1846 418.1913 164.839 418.1913z" stroke="none" fill="#92A2B2" fill-rule="evenodd" /><path id="106" transform="matrix(1 0 0 -1 0 870)" d="M256.999 417.442L307.2 417.442C 308.4408 417.442 309.4478 416.435 309.4478 415.1942L309.4478 415.1942L309.4478 368.7396C 309.4478 367.4987 308.4408 366.4917 307.2 366.4917L307.2 366.4917L256.999 366.4917C 255.7582 366.4917 254.7512 367.4987 254.7512 368.7396L254.7512 368.7396L254.7512 415.1942C 254.7512 416.435 255.7582 417.442 256.999 417.442zM256.999 418.1913L307.2 418.1913C 308.8544 418.1913 310.1971 416.8486 310.1971 415.1942L310.1971 415.1942L310.1971 368.7396C 310.1971 367.0852 308.8544 365.7425 307.2 365.7425L307.2 365.7425L256.999 365.7425C 255.3446 365.7425 254.0019 367.0852 254.0019 368.7396L254.0019 368.7396L254.0019 415.1942C 254.0019 416.8486 255.3446 418.1913 256.999 418.1913z" stroke="none" fill="#92A2B2" fill-rule="evenodd" /><path id="111" transform="matrix(1 0 0 -1 0 870)" d="M134.8683 451.1589L135.6176 451.1589L135.6176 344.0135L134.8683 344.0135z" stroke="none" fill="#0B70BD" fill-rule="nonzero" /><path id="112" transform="matrix(1 0 0 -1 0 870)" d="M134.8683 442.917L585.1785 442.917L585.1785 442.1677L134.8683 442.1677z" stroke="none" fill="#0B70BD" fill-rule="nonzero" /><path id="113" transform="matrix(1 0 0 -1 0 870)" d="M134.8683 452.6576C 141.0722 452.6576 146.1073 447.6225 146.1073 441.4186C 146.1073 435.2146 141.0722 430.1795 134.8683 430.1795C 128.6643 430.1795 123.6293 435.2146 123.6293 441.4186C 123.6293 447.6225 128.6643 452.6576 134.8683 452.6576z" stroke="none" fill="#0B70BD" fill-rule="evenodd" /></g><g clip-path="url(#135)"><g clip-path="url(#136)"></g></g><g clip-path="url(#137)"></g><g clip-path="url(#138)"><g clip-path="url(#139)"></g></g><g clip-path="url(#140)"></g></g></g></svg>